<?xml version="1.0" standalone="no"?>
<!DOCTYPE svg PUBLIC "-//W3C//DTD SVG 20010904//EN"
 "http://www.w3.org/TR/2001/REC-SVG-20010904/DTD/svg10.dtd">
<svg version="1.0" xmlns="http://www.w3.org/2000/svg"
 width="310.000000pt" height="310.000000pt" viewBox="0 0 310.000000 310.000000"
 preserveAspectRatio="xMidYMid meet">
<metadata>
Created by potrace 1.14, written by Peter Selinger 2001-2017
</metadata>
<g transform="translate(0.000000,310.000000) scale(0.100000,-0.100000)"
fill="#000000" stroke="none">
<path d="M460 2580 c-66 -14 -135 -91 -146 -162 -7 -44 18 -111 61 -164 35
-42 124 -94 163 -94 35 0 70 -38 86 -93 19 -64 30 -75 121 -120 99 -49 106
-59 87 -125 -10 -37 -31 -70 -69 -113 -30 -34 -59 -73 -65 -88 -16 -41 -17
-102 -1 -145 7 -22 11 -54 7 -71 -3 -16 -8 -42 -11 -56 -4 -19 3 -35 25 -60
37 -43 48 -64 56 -112 5 -29 15 -43 44 -60 20 -13 45 -26 54 -30 19 -7 33 -49
24 -72 -3 -8 -17 -15 -30 -15 -41 0 -79 -60 -79 -124 0 -80 32 -116 106 -116
60 0 131 60 129 110 -1 36 10 44 56 42 41 -2 77 -31 92 -76 15 -47 55 -66 140
-66 76 0 122 16 140 49 6 13 10 262 10 731 l0 712 -29 29 c-29 29 -31 29 -143
29 -124 0 -172 -14 -217 -64 -56 -60 -25 -178 57 -220 l45 -23 -33 -23 c-28
-20 -45 -23 -131 -24 l-99 -1 -15 40 c-7 22 -16 67 -19 99 -7 71 -16 85 -105
173 -63 62 -69 72 -75 120 -14 112 -135 205 -236 183z"/>
<path d="M1669 2291 l-29 -29 0 -717 0 -717 29 -29 29 -29 282 0 282 0 29 29
29 29 0 717 0 717 -29 29 -29 29 -282 0 -282 0 -29 -29z"/>
<path d="M299 2021 c-74 -35 -78 -134 -8 -215 37 -43 128 -56 166 -24 22 18
46 78 46 114 0 88 -123 163 -204 125z"/>
<path d="M194 1400 c-21 -8 -74 -65 -74 -80 0 -5 -14 -31 -31 -58 -60 -97 -38
-174 84 -294 41 -41 79 -49 158 -34 71 13 112 26 134 40 29 19 65 85 65 118 0
13 6 43 14 68 17 59 11 93 -27 149 -38 56 -46 64 -76 81 -27 14 -216 22 -247
10z"/>
<path d="M587 717 c-53 -13 -112 -71 -127 -125 -25 -96 14 -151 139 -191 83
-27 156 -1 178 64 23 66 23 135 2 177 -31 60 -116 93 -192 75z"/>
</g>
</svg>
